<mxfile host="app.diagrams.net" modified="2022-03-15T14:01:45.623Z" agent="5.0 (Windows NT 10.0; Win64; x64) AppleWebKit/537.36 (KHTML, like Gecko) Chrome/99.0.4844.51 Safari/537.36" etag="elHqQpaTtSRrPAfSFSeN" version="17.1.2" type="github">
  <diagram id="thlxId8DeGrzx8db2zMS" name="Page-1">
    <mxGraphModel dx="1038" dy="585" grid="1" gridSize="10" guides="1" tooltips="1" connect="1" arrows="1" fold="1" page="1" pageScale="1" pageWidth="827" pageHeight="1169" math="0" shadow="0">
      <root>
        <mxCell id="0" />
        <mxCell id="1" parent="0" />
        <mxCell id="wj8Ox7MCc_gtGJZ60Wdk-2" value="" style="rounded=1;whiteSpace=wrap;html=1;fillColor=none;dashed=1;strokeColor=#B5739D;strokeWidth=2;" vertex="1" parent="1">
          <mxGeometry x="13.21" y="550" width="146.79" height="125" as="geometry" />
        </mxCell>
        <mxCell id="wj8Ox7MCc_gtGJZ60Wdk-3" value="" style="rounded=1;whiteSpace=wrap;html=1;fillColor=none;dashed=1;strokeColor=#B5739D;strokeWidth=2;" vertex="1" parent="1">
          <mxGeometry x="18" y="180" width="346" height="50" as="geometry" />
        </mxCell>
        <mxCell id="wj8Ox7MCc_gtGJZ60Wdk-5" value="" style="edgeStyle=orthogonalEdgeStyle;rounded=0;orthogonalLoop=1;jettySize=auto;html=1;strokeWidth=2;fillColor=#d5e8d4;strokeColor=#82b366;entryX=0;entryY=0.5;entryDx=0;entryDy=0;" edge="1" parent="1" source="wj8Ox7MCc_gtGJZ60Wdk-6">
          <mxGeometry relative="1" as="geometry">
            <mxPoint x="283" y="415" as="targetPoint" />
          </mxGeometry>
        </mxCell>
        <mxCell id="wj8Ox7MCc_gtGJZ60Wdk-6" value="/detect_img" style="rounded=1;whiteSpace=wrap;html=1;fillColor=#1ba1e2;strokeColor=#006EAF;horizontal=1;fontSize=16;fontColor=#ffffff;fontStyle=1" vertex="1" parent="1">
          <mxGeometry x="169" y="333" width="115" height="30" as="geometry" />
        </mxCell>
        <mxCell id="wj8Ox7MCc_gtGJZ60Wdk-7" style="edgeStyle=orthogonalEdgeStyle;rounded=0;orthogonalLoop=1;jettySize=auto;html=1;strokeWidth=2;fillColor=#d5e8d4;strokeColor=#82b366;" edge="1" parent="1" source="wj8Ox7MCc_gtGJZ60Wdk-8" target="wj8Ox7MCc_gtGJZ60Wdk-16">
          <mxGeometry relative="1" as="geometry" />
        </mxCell>
        <mxCell id="wj8Ox7MCc_gtGJZ60Wdk-8" value="&lt;font color=&quot;#000000&quot;&gt;RealSense t265&lt;/font&gt;" style="rounded=1;whiteSpace=wrap;html=1;fontSize=16;fillColor=#ffe6cc;strokeColor=#d79b00;fontStyle=1" vertex="1" parent="1">
          <mxGeometry x="22" y="120" width="142" height="30" as="geometry" />
        </mxCell>
        <mxCell id="wj8Ox7MCc_gtGJZ60Wdk-9" value="" style="edgeStyle=orthogonalEdgeStyle;rounded=0;orthogonalLoop=1;jettySize=auto;html=1;strokeWidth=2;fillColor=#d5e8d4;strokeColor=#82b366;" edge="1" parent="1" source="wj8Ox7MCc_gtGJZ60Wdk-10" target="wj8Ox7MCc_gtGJZ60Wdk-20">
          <mxGeometry relative="1" as="geometry" />
        </mxCell>
        <mxCell id="wj8Ox7MCc_gtGJZ60Wdk-10" value="&lt;font color=&quot;#000000&quot;&gt;RealSense&amp;nbsp; L515&lt;/font&gt;" style="rounded=1;whiteSpace=wrap;html=1;fontSize=16;fillColor=#ffe6cc;strokeColor=#d79b00;fontStyle=1" vertex="1" parent="1">
          <mxGeometry x="22" y="190" width="142" height="30" as="geometry" />
        </mxCell>
        <mxCell id="wj8Ox7MCc_gtGJZ60Wdk-13" value="" style="edgeStyle=orthogonalEdgeStyle;rounded=0;orthogonalLoop=1;jettySize=auto;html=1;strokeWidth=2;fillColor=#d5e8d4;strokeColor=#82b366;" edge="1" parent="1" source="wj8Ox7MCc_gtGJZ60Wdk-14" target="wj8Ox7MCc_gtGJZ60Wdk-6">
          <mxGeometry relative="1" as="geometry" />
        </mxCell>
        <mxCell id="wj8Ox7MCc_gtGJZ60Wdk-14" value="鱼眼相机" style="rounded=1;whiteSpace=wrap;html=1;fontSize=16;fillColor=#ffe6cc;strokeColor=#d79b00;fontStyle=1" vertex="1" parent="1">
          <mxGeometry x="22" y="333" width="116" height="30" as="geometry" />
        </mxCell>
        <mxCell id="wj8Ox7MCc_gtGJZ60Wdk-15" value="&lt;b style=&quot;font-size: 16px&quot;&gt;视觉点云聚类&lt;/b&gt;" style="text;html=1;resizable=0;autosize=1;align=center;verticalAlign=middle;points=[];fillColor=none;strokeColor=none;rounded=0;fontSize=16;" vertex="1" parent="1">
          <mxGeometry x="236" y="230" width="110" height="20" as="geometry" />
        </mxCell>
        <mxCell id="wj8Ox7MCc_gtGJZ60Wdk-16" value="/local_position" style="rounded=1;whiteSpace=wrap;html=1;fillColor=#1ba1e2;strokeColor=#006EAF;horizontal=1;fontSize=16;fontColor=#ffffff;fontStyle=1" vertex="1" parent="1">
          <mxGeometry x="304.21" y="120" width="140" height="30" as="geometry" />
        </mxCell>
        <mxCell id="wj8Ox7MCc_gtGJZ60Wdk-17" value="" style="edgeStyle=orthogonalEdgeStyle;rounded=0;orthogonalLoop=1;jettySize=auto;html=1;strokeWidth=2;fillColor=#dae8fc;strokeColor=#6c8ebf;entryX=0.5;entryY=0;entryDx=0;entryDy=0;exitX=0;exitY=0.75;exitDx=0;exitDy=0;" edge="1" parent="1">
          <mxGeometry relative="1" as="geometry">
            <mxPoint x="489" y="96" as="targetPoint" />
            <mxPoint x="579" y="54.75" as="sourcePoint" />
          </mxGeometry>
        </mxCell>
        <mxCell id="wj8Ox7MCc_gtGJZ60Wdk-52" style="edgeStyle=orthogonalEdgeStyle;rounded=0;orthogonalLoop=1;jettySize=auto;html=1;entryX=0.5;entryY=0;entryDx=0;entryDy=0;strokeWidth=2;exitX=0.105;exitY=1;exitDx=0;exitDy=0;exitPerimeter=0;fillColor=#dae8fc;strokeColor=#6c8ebf;" edge="1" parent="1" source="wj8Ox7MCc_gtGJZ60Wdk-18" target="wj8Ox7MCc_gtGJZ60Wdk-28">
          <mxGeometry relative="1" as="geometry" />
        </mxCell>
        <mxCell id="wj8Ox7MCc_gtGJZ60Wdk-54" value="" style="edgeStyle=orthogonalEdgeStyle;rounded=0;orthogonalLoop=1;jettySize=auto;html=1;strokeWidth=2;exitX=0.915;exitY=0.968;exitDx=0;exitDy=0;exitPerimeter=0;fillColor=#dae8fc;strokeColor=#6c8ebf;" edge="1" parent="1" source="wj8Ox7MCc_gtGJZ60Wdk-18" target="wj8Ox7MCc_gtGJZ60Wdk-53">
          <mxGeometry relative="1" as="geometry">
            <Array as="points">
              <mxPoint x="653" y="60" />
              <mxPoint x="670" y="60" />
            </Array>
          </mxGeometry>
        </mxCell>
        <mxCell id="wj8Ox7MCc_gtGJZ60Wdk-55" value="" style="edgeStyle=orthogonalEdgeStyle;rounded=0;orthogonalLoop=1;jettySize=auto;html=1;strokeWidth=2;entryX=0.5;entryY=0;entryDx=0;entryDy=0;fillColor=#dae8fc;strokeColor=#6c8ebf;" edge="1" parent="1" source="wj8Ox7MCc_gtGJZ60Wdk-18" target="wj8Ox7MCc_gtGJZ60Wdk-31">
          <mxGeometry relative="1" as="geometry" />
        </mxCell>
        <mxCell id="wj8Ox7MCc_gtGJZ60Wdk-18" value="stand" style="rounded=1;whiteSpace=wrap;html=1;fillColor=#f8cecc;strokeColor=#b85450;horizontal=1;fontSize=16;fontStyle=1" vertex="1" parent="1">
          <mxGeometry x="580" y="40" width="80" height="25" as="geometry" />
        </mxCell>
        <mxCell id="wj8Ox7MCc_gtGJZ60Wdk-19" value="" style="edgeStyle=orthogonalEdgeStyle;rounded=0;orthogonalLoop=1;jettySize=auto;html=1;strokeWidth=2;fillColor=#d5e8d4;strokeColor=#82b366;" edge="1" parent="1" source="wj8Ox7MCc_gtGJZ60Wdk-20" target="wj8Ox7MCc_gtGJZ60Wdk-23">
          <mxGeometry relative="1" as="geometry" />
        </mxCell>
        <mxCell id="wj8Ox7MCc_gtGJZ60Wdk-20" value="/image_raw" style="rounded=1;whiteSpace=wrap;html=1;fillColor=#1ba1e2;strokeColor=#006EAF;horizontal=1;fontSize=16;fontColor=#ffffff;fontStyle=1" vertex="1" parent="1">
          <mxGeometry x="230" y="190" width="124" height="30" as="geometry" />
        </mxCell>
        <mxCell id="wj8Ox7MCc_gtGJZ60Wdk-22" value="" style="edgeStyle=orthogonalEdgeStyle;rounded=0;orthogonalLoop=1;jettySize=auto;html=1;strokeWidth=2;fillColor=#d5e8d4;strokeColor=#82b366;" edge="1" parent="1">
          <mxGeometry relative="1" as="geometry">
            <mxPoint x="344" y="290" as="sourcePoint" />
            <mxPoint x="344" y="400" as="targetPoint" />
          </mxGeometry>
        </mxCell>
        <mxCell id="wj8Ox7MCc_gtGJZ60Wdk-23" value="/block_position" style="rounded=1;whiteSpace=wrap;html=1;fillColor=#1ba1e2;strokeColor=#006EAF;horizontal=1;fontSize=16;fontColor=#ffffff;fontStyle=1" vertex="1" parent="1">
          <mxGeometry x="225" y="260" width="134" height="30" as="geometry" />
        </mxCell>
        <mxCell id="wj8Ox7MCc_gtGJZ60Wdk-24" value="&lt;b&gt;一种步态对应一种状态&lt;/b&gt;" style="text;html=1;resizable=0;autosize=1;align=center;verticalAlign=middle;points=[];fillColor=none;strokeColor=none;rounded=0;fontSize=16;" vertex="1" parent="1">
          <mxGeometry x="530" y="10" width="180" height="20" as="geometry" />
        </mxCell>
        <mxCell id="wj8Ox7MCc_gtGJZ60Wdk-26" value="walk" style="rounded=1;whiteSpace=wrap;html=1;fillColor=#f8cecc;strokeColor=#b85450;horizontal=1;fontSize=16;fontStyle=1" vertex="1" parent="1">
          <mxGeometry x="460" y="100" width="60" height="25" as="geometry" />
        </mxCell>
        <mxCell id="wj8Ox7MCc_gtGJZ60Wdk-28" value="trout" style="rounded=1;whiteSpace=wrap;html=1;fillColor=#f8cecc;strokeColor=#b85450;horizontal=1;fontSize=16;fontStyle=1" vertex="1" parent="1">
          <mxGeometry x="540" y="100" width="60" height="25" as="geometry" />
        </mxCell>
        <mxCell id="wj8Ox7MCc_gtGJZ60Wdk-31" value="gallop" style="rounded=1;whiteSpace=wrap;html=1;fillColor=#f8cecc;strokeColor=#b85450;horizontal=1;fontSize=16;fontStyle=1" vertex="1" parent="1">
          <mxGeometry x="730" y="100" width="70" height="25" as="geometry" />
        </mxCell>
        <mxCell id="wj8Ox7MCc_gtGJZ60Wdk-35" value="&lt;b style=&quot;font-size: 16px&quot;&gt;无人机全局位姿&lt;/b&gt;" style="text;html=1;resizable=0;autosize=1;align=center;verticalAlign=middle;points=[];fillColor=none;strokeColor=none;rounded=0;fontSize=16;" vertex="1" parent="1">
          <mxGeometry x="166.20999999999998" y="110" width="130" height="20" as="geometry" />
        </mxCell>
        <mxCell id="wj8Ox7MCc_gtGJZ60Wdk-37" value="&lt;b&gt;目标点更新&lt;br&gt;&lt;/b&gt;" style="text;html=1;resizable=0;autosize=1;align=center;verticalAlign=middle;points=[];fillColor=none;strokeColor=none;rounded=0;fontSize=16;" vertex="1" parent="1">
          <mxGeometry x="241" y="370" width="100" height="20" as="geometry" />
        </mxCell>
        <mxCell id="wj8Ox7MCc_gtGJZ60Wdk-39" value="" style="rounded=1;whiteSpace=wrap;html=1;fillColor=none;dashed=1;strokeColor=#B5739D;strokeWidth=2;" vertex="1" parent="1">
          <mxGeometry x="18" y="330" width="276" height="40" as="geometry" />
        </mxCell>
        <mxCell id="wj8Ox7MCc_gtGJZ60Wdk-40" value="&lt;b&gt;Hough变换+图像分割&lt;br&gt;&lt;/b&gt;" style="text;html=1;resizable=0;autosize=1;align=center;verticalAlign=middle;points=[];fillColor=none;strokeColor=none;rounded=0;fontSize=16;" vertex="1" parent="1">
          <mxGeometry x="66" y="310" width="170" height="20" as="geometry" />
        </mxCell>
        <mxCell id="wj8Ox7MCc_gtGJZ60Wdk-42" value="&lt;font color=&quot;#000000&quot;&gt;CPG步态&lt;/font&gt;" style="rounded=1;whiteSpace=wrap;html=1;fontSize=16;fillColor=#ffe6cc;strokeColor=#d79b00;fontStyle=1" vertex="1" parent="1">
          <mxGeometry x="20.6" y="53" width="126.79" height="30" as="geometry" />
        </mxCell>
        <mxCell id="wj8Ox7MCc_gtGJZ60Wdk-43" value="" style="endArrow=classic;startArrow=classic;html=1;rounded=0;strokeWidth=2;exitX=0.439;exitY=-0.1;exitDx=0;exitDy=0;exitPerimeter=0;fillColor=#d5e8d4;strokeColor=#82b366;" edge="1" parent="1">
          <mxGeometry width="50" height="50" relative="1" as="geometry">
            <mxPoint x="85.33799999999997" y="125" as="sourcePoint" />
            <mxPoint x="85" y="78" as="targetPoint" />
          </mxGeometry>
        </mxCell>
        <mxCell id="wj8Ox7MCc_gtGJZ60Wdk-44" value="&lt;b&gt;卡尔曼数据融合&lt;/b&gt;" style="text;html=1;resizable=0;autosize=1;align=center;verticalAlign=middle;points=[];fillColor=none;strokeColor=none;rounded=0;fontSize=16;" vertex="1" parent="1">
          <mxGeometry x="90.99999999999999" y="80" width="130" height="20" as="geometry" />
        </mxCell>
        <mxCell id="wj8Ox7MCc_gtGJZ60Wdk-53" value="pace" style="rounded=1;whiteSpace=wrap;html=1;fillColor=#f8cecc;strokeColor=#b85450;horizontal=1;fontSize=16;fontStyle=1" vertex="1" parent="1">
          <mxGeometry x="640" y="100" width="60" height="25" as="geometry" />
        </mxCell>
        <mxCell id="wj8Ox7MCc_gtGJZ60Wdk-63" value="" style="edgeStyle=orthogonalEdgeStyle;rounded=0;orthogonalLoop=1;jettySize=auto;html=1;strokeWidth=2;fillColor=#d5e8d4;strokeColor=#82b366;" edge="1" parent="1" source="wj8Ox7MCc_gtGJZ60Wdk-57" target="wj8Ox7MCc_gtGJZ60Wdk-62">
          <mxGeometry relative="1" as="geometry" />
        </mxCell>
        <mxCell id="wj8Ox7MCc_gtGJZ60Wdk-57" value="Whole body control" style="rounded=1;whiteSpace=wrap;html=1;fillColor=#1ba1e2;strokeColor=#006EAF;horizontal=1;fontSize=16;fontColor=#ffffff;fontStyle=1" vertex="1" parent="1">
          <mxGeometry x="166.3" y="460" width="170" height="30" as="geometry" />
        </mxCell>
        <mxCell id="wj8Ox7MCc_gtGJZ60Wdk-61" value="" style="edgeStyle=orthogonalEdgeStyle;rounded=0;orthogonalLoop=1;jettySize=auto;html=1;strokeWidth=2;fillColor=#d5e8d4;strokeColor=#82b366;" edge="1" parent="1" source="wj8Ox7MCc_gtGJZ60Wdk-60" target="wj8Ox7MCc_gtGJZ60Wdk-57">
          <mxGeometry relative="1" as="geometry" />
        </mxCell>
        <mxCell id="wj8Ox7MCc_gtGJZ60Wdk-60" value="MPC" style="rounded=1;whiteSpace=wrap;html=1;fillColor=#1ba1e2;strokeColor=#006EAF;horizontal=1;fontSize=16;fontColor=#ffffff;fontStyle=1" vertex="1" parent="1">
          <mxGeometry x="47.3" y="460" width="70.6" height="30" as="geometry" />
        </mxCell>
        <mxCell id="wj8Ox7MCc_gtGJZ60Wdk-77" value="" style="edgeStyle=orthogonalEdgeStyle;rounded=0;orthogonalLoop=1;jettySize=auto;html=1;strokeWidth=2;fillColor=#f8cecc;strokeColor=#b85450;" edge="1" parent="1" source="wj8Ox7MCc_gtGJZ60Wdk-62" target="wj8Ox7MCc_gtGJZ60Wdk-76">
          <mxGeometry relative="1" as="geometry" />
        </mxCell>
        <mxCell id="wj8Ox7MCc_gtGJZ60Wdk-62" value="关节电机PD控制器" style="rounded=1;whiteSpace=wrap;html=1;fillColor=#1ba1e2;strokeColor=#006EAF;horizontal=1;fontSize=16;fontColor=#ffffff;fontStyle=1" vertex="1" parent="1">
          <mxGeometry x="387.3" y="460" width="170" height="30" as="geometry" />
        </mxCell>
        <mxCell id="wj8Ox7MCc_gtGJZ60Wdk-67" value="" style="edgeStyle=orthogonalEdgeStyle;rounded=0;orthogonalLoop=1;jettySize=auto;html=1;strokeWidth=2;fillColor=#f8cecc;strokeColor=#b85450;" edge="1" parent="1" source="wj8Ox7MCc_gtGJZ60Wdk-64" target="wj8Ox7MCc_gtGJZ60Wdk-65">
          <mxGeometry relative="1" as="geometry" />
        </mxCell>
        <mxCell id="wj8Ox7MCc_gtGJZ60Wdk-64" value="&lt;font color=&quot;#000000&quot;&gt;IMU&lt;/font&gt;" style="rounded=1;whiteSpace=wrap;html=1;fontSize=16;fillColor=#ffe6cc;strokeColor=#d79b00;fontStyle=1" vertex="1" parent="1">
          <mxGeometry x="44.1" y="632.81" width="77" height="30" as="geometry" />
        </mxCell>
        <mxCell id="wj8Ox7MCc_gtGJZ60Wdk-68" value="" style="edgeStyle=orthogonalEdgeStyle;rounded=0;orthogonalLoop=1;jettySize=auto;html=1;strokeWidth=2;entryX=0.895;entryY=1.073;entryDx=0;entryDy=0;entryPerimeter=0;fillColor=#d5e8d4;strokeColor=#82b366;" edge="1" parent="1" source="wj8Ox7MCc_gtGJZ60Wdk-65">
          <mxGeometry relative="1" as="geometry">
            <mxPoint x="82.78699999999989" y="490.00000000000006" as="targetPoint" />
          </mxGeometry>
        </mxCell>
        <mxCell id="wj8Ox7MCc_gtGJZ60Wdk-73" value="" style="edgeStyle=orthogonalEdgeStyle;rounded=0;orthogonalLoop=1;jettySize=auto;html=1;strokeWidth=2;fillColor=#d5e8d4;strokeColor=#82b366;" edge="1" parent="1" source="wj8Ox7MCc_gtGJZ60Wdk-65" target="wj8Ox7MCc_gtGJZ60Wdk-72">
          <mxGeometry relative="1" as="geometry" />
        </mxCell>
        <mxCell id="wj8Ox7MCc_gtGJZ60Wdk-65" value="State estimate" style="rounded=1;whiteSpace=wrap;html=1;fillColor=#1ba1e2;strokeColor=#006EAF;horizontal=1;fontSize=16;fontColor=#ffffff;fontStyle=1" vertex="1" parent="1">
          <mxGeometry x="20.6" y="557.81" width="124" height="30" as="geometry" />
        </mxCell>
        <mxCell id="wj8Ox7MCc_gtGJZ60Wdk-69" value="&lt;b&gt;当前状态&lt;br&gt;&lt;/b&gt;" style="text;html=1;resizable=0;autosize=1;align=center;verticalAlign=middle;points=[];fillColor=none;strokeColor=none;rounded=0;fontSize=16;" vertex="1" parent="1">
          <mxGeometry x="42.6" y="517.81" width="80" height="20" as="geometry" />
        </mxCell>
        <mxCell id="wj8Ox7MCc_gtGJZ60Wdk-71" value="/target_update" style="rounded=1;whiteSpace=wrap;html=1;fillColor=#1ba1e2;strokeColor=#006EAF;horizontal=1;fontSize=16;fontColor=#ffffff;fontStyle=1" vertex="1" parent="1">
          <mxGeometry x="283" y="400" width="135" height="30" as="geometry" />
        </mxCell>
        <mxCell id="wj8Ox7MCc_gtGJZ60Wdk-74" style="edgeStyle=orthogonalEdgeStyle;rounded=0;orthogonalLoop=1;jettySize=auto;html=1;strokeWidth=2;fillColor=#d5e8d4;strokeColor=#82b366;" edge="1" parent="1">
          <mxGeometry relative="1" as="geometry">
            <mxPoint x="255.5" y="557.81" as="sourcePoint" />
            <mxPoint x="256" y="490" as="targetPoint" />
            <Array as="points">
              <mxPoint x="256" y="540" />
              <mxPoint x="256" y="540" />
            </Array>
          </mxGeometry>
        </mxCell>
        <mxCell id="wj8Ox7MCc_gtGJZ60Wdk-72" value="Kinematic model" style="rounded=1;whiteSpace=wrap;html=1;fillColor=#1ba1e2;strokeColor=#006EAF;horizontal=1;fontSize=16;fontColor=#ffffff;fontStyle=1" vertex="1" parent="1">
          <mxGeometry x="190" y="557.81" width="135" height="30" as="geometry" />
        </mxCell>
        <mxCell id="wj8Ox7MCc_gtGJZ60Wdk-78" style="edgeStyle=orthogonalEdgeStyle;rounded=0;orthogonalLoop=1;jettySize=auto;html=1;entryX=1;entryY=0.5;entryDx=0;entryDy=0;strokeWidth=2;fillColor=#f8cecc;strokeColor=#b85450;" edge="1" parent="1" source="wj8Ox7MCc_gtGJZ60Wdk-76" target="wj8Ox7MCc_gtGJZ60Wdk-2">
          <mxGeometry relative="1" as="geometry">
            <Array as="points">
              <mxPoint x="670" y="613" />
            </Array>
          </mxGeometry>
        </mxCell>
        <mxCell id="wj8Ox7MCc_gtGJZ60Wdk-76" value="电机" style="rounded=1;whiteSpace=wrap;html=1;fontSize=16;fillColor=#ffe6cc;strokeColor=#d79b00;fontStyle=1" vertex="1" parent="1">
          <mxGeometry x="629" y="460" width="82" height="30" as="geometry" />
        </mxCell>
        <mxCell id="wj8Ox7MCc_gtGJZ60Wdk-79" value="&lt;b&gt;编码器反馈&lt;br&gt;&lt;/b&gt;" style="text;html=1;resizable=0;autosize=1;align=center;verticalAlign=middle;points=[];fillColor=none;strokeColor=none;rounded=0;fontSize=16;" vertex="1" parent="1">
          <mxGeometry x="370" y="587.81" width="100" height="20" as="geometry" />
        </mxCell>
      </root>
    </mxGraphModel>
  </diagram>
</mxfile>
